<svg version="1.1" xmlns="http://www.w3.org/2000/svg" xmlns:xlink="http://www.w3.org/1999/xlink"
    width="48px" height="48px" viewBox="0,0,256,256">
    <g transform="translate(-19.2,-19.2) scale(1.15,1.15)">
        <g fill="#E84A4A" fill-rule="nonzero" stroke="none" stroke-width="1" stroke-linecap="butt"
            stroke-linejoin="miter" stroke-miterlimit="10" stroke-dasharray="" stroke-dashoffset="0"
            font-family="none" font-weight="none" font-size="none" text-anchor="none"
            style="mix-blend-mode: normal">
            <g transform="scale(5.33333,5.33333)">
                <path
                    d="M24,4c-3.39502,0 -6.12807,2.67094 -6.39844,6h-11.10156c-0.54095,-0.00765 -1.04412,0.27656 -1.31683,0.74381c-0.27271,0.46725 -0.27271,1.04514 0,1.51238c0.27271,0.46725 0.77588,0.75146 1.31683,0.74381h1.67969l3.38281,26.20313c0.353,2.734 2.69908,4.79688 5.45508,4.79688h6.61523c-0.855,-0.889 -1.5822,-1.897 -2.1582,-3h-4.45898c-1.253,0 -2.31752,-0.93769 -2.47852,-2.17969l-3.33203,-25.82031h25.58789l-1.19336,9.26172c1.017,0.206 1.98344,0.5417 2.89844,0.9707l1.32031,-10.23242h1.68164c0.54095,0.00765 1.04412,-0.27656 1.31683,-0.74381c0.27271,-0.46725 0.27271,-1.04514 0,-1.51238c-0.27271,-0.46725 -0.77588,-0.75146 -1.31683,-0.74381h-11.10156c-0.27037,-3.32906 -3.00342,-6 -6.39844,-6zM24,7c1.77204,0 3.15195,1.30305 3.40039,3h-6.80078c0.24845,-1.69695 1.62835,-3 3.40039,-3zM33,24c-6.075,0 -11,4.925 -11,11c0,6.075 4.925,11 11,11c6.075,0 11,-4.925 11,-11c0,-6.075 -4.925,-11 -11,-11zM38,29c0.11338,0 0.22593,0.02607 0.33398,0.06445c0.03843,0.01367 0.07447,0.03422 0.11133,0.05273c0.09277,0.0468 0.1843,0.09817 0.26172,0.17578c0.08221,0.08221 0.13791,0.1802 0.18555,0.2793c0.01373,0.0287 0.03018,0.0563 0.04102,0.08594c0.08101,0.22123 0.08247,0.46243 0.00195,0.68359c-0.0119,0.03262 -0.03147,0.06226 -0.04687,0.09375c-0.04734,0.09654 -0.10123,0.19128 -0.18164,0.27148l-4.29297,4.29297c2.195,2.194 4.20497,4.20497 4.29297,4.29297c0.07876,0.07876 0.1307,0.17315 0.17773,0.26758c0.01711,0.03458 0.03792,0.06756 0.05078,0.10352c0.03921,0.1092 0.06445,0.22134 0.06445,0.33594c0,0.11338 -0.02607,0.22593 -0.06445,0.33398c-0.01367,0.03843 -0.03422,0.07447 -0.05273,0.11133c-0.0468,0.09277 -0.09817,0.1843 -0.17578,0.26172c-0.08221,0.08221 -0.1802,0.13791 -0.2793,0.18555c-0.0287,0.01373 -0.0563,0.03018 -0.08594,0.04102c-0.22123,0.08101 -0.46243,0.08247 -0.68359,0.00195c-0.03263,-0.0119 -0.06226,-0.03147 -0.09375,-0.04687c-0.09654,-0.04734 -0.19128,-0.10123 -0.27148,-0.18164l-4.29297,-4.29297l-4.29297,4.29297c-0.07876,0.07876 -0.17315,0.1307 -0.26758,0.17773c-0.03458,0.01711 -0.06756,0.03792 -0.10352,0.05078c-0.1092,0.03921 -0.22134,0.06445 -0.33594,0.06445c-0.11338,0 -0.22593,-0.02607 -0.33398,-0.06445c-0.03843,-0.01367 -0.07447,-0.03422 -0.11133,-0.05273c-0.09277,-0.0468 -0.1843,-0.09817 -0.26172,-0.17578c-0.08221,-0.08221 -0.13791,-0.1802 -0.18555,-0.2793c-0.01373,-0.0287 -0.03018,-0.0563 -0.04102,-0.08594c-0.08101,-0.22123 -0.08247,-0.46243 -0.00195,-0.68359c0.0119,-0.03263 0.03147,-0.06226 0.04688,-0.09375c0.04734,-0.09654 0.10123,-0.19128 0.18164,-0.27148c0.088,-0.088 2.09797,-2.09897 4.29297,-4.29297l-4.29297,-4.29297c-0.07876,-0.07876 -0.1307,-0.17315 -0.17773,-0.26758c-0.01711,-0.03458 -0.03792,-0.06756 -0.05078,-0.10352c-0.03921,-0.1092 -0.06445,-0.22134 -0.06445,-0.33594c0,-0.11338 0.02607,-0.22593 0.06445,-0.33398c0.01367,-0.03843 0.03422,-0.07447 0.05273,-0.11133c0.0468,-0.09277 0.09817,-0.1843 0.17578,-0.26172c0.09363,-0.09363 0.20363,-0.16215 0.31836,-0.21094c0.0178,-0.00755 0.03656,-0.01111 0.05469,-0.01758c0.09531,-0.03401 0.19307,-0.05247 0.29297,-0.05664c0.02215,-0.00092 0.04424,-0.00445 0.06641,-0.00391c0.11335,0.0029 0.22676,0.02317 0.33398,0.06445c0.01836,0.00709 0.03474,0.01913 0.05273,0.02734c0.10597,0.04832 0.2078,0.10992 0.29492,0.19727c0.088,0.088 2.09897,2.09797 4.29297,4.29297l4.29297,-4.29297c0.07876,-0.07876 0.17315,-0.1307 0.26758,-0.17773c0.03458,-0.01711 0.06756,-0.03792 0.10352,-0.05078c0.1092,-0.03921 0.22134,-0.06445 0.33594,-0.06445z"></path>
            </g>
        </g>
    </g>
</svg>